<svg width="168" height="36" viewBox="0 0 168 36" fill="none" xmlns="http://www.w3.org/2000/svg">
<g clip-path="url(#clip0_32_813)">
<path d="M2.73725 21.9546L8.02428 27.2416C8.02755 27.2449 8.03107 27.2479 8.03433 27.2512C8.0376 27.2545 8.0415 27.2589 8.04527 27.2626C9.5881 28.8053 11.6221 29.7597 13.7947 29.9604C15.9673 30.161 18.1415 29.5954 19.9409 28.3614C21.7403 29.5954 23.9145 30.161 26.0871 29.9604C28.2597 29.7597 30.2936 28.8053 31.8365 27.2626L37.1236 21.9757C38.7708 20.3281 39.7433 18.1246 39.8503 15.7972C39.9574 13.4698 39.1914 11.1863 37.7024 9.3943C36.2134 7.60243 34.1088 6.43114 31.8012 6.11023C29.4936 5.78933 27.1492 6.3418 25.2278 7.65948C23.672 6.5926 21.8299 6.0214 19.9435 6.02077C18.057 6.02027 16.2147 6.59046 14.6583 7.65646C12.7391 6.33062 10.3935 5.77048 8.08233 6.08585C5.77116 6.40136 3.66152 7.56951 2.16769 9.36113C0.673986 11.1527 -0.095736 13.4382 0.00955706 15.7683C0.114976 18.0986 1.08787 20.3052 2.73725 21.9546ZM28.0987 10.307C29.2923 9.73695 30.6489 9.60728 31.9288 9.94075C33.2088 10.2741 34.3297 11.0493 35.0934 12.1293C35.857 13.2092 36.2144 14.5243 36.1022 15.8422C35.9901 17.1601 35.4156 18.396 34.4804 19.3313L29.1935 24.6184C28.3729 25.4379 27.3187 25.9833 26.1757 26.1797C25.0327 26.376 23.8569 26.2138 22.8098 25.7151L26.5496 21.9757C27.9838 20.549 28.9122 18.6925 29.1935 16.6892C29.2554 16.2512 29.2867 15.8094 29.287 15.367C29.2907 13.6181 28.8003 11.9038 27.8722 10.4214C27.9471 10.3814 28.0226 10.3435 28.0987 10.3074L28.0987 10.307ZM15.9757 11.4014C17.0285 10.3555 18.453 9.76974 19.937 9.77213C21.421 9.77464 22.8435 10.3653 23.8929 11.4146C24.9422 12.464 25.5329 13.8865 25.5354 15.3705C25.5378 16.8545 24.952 18.279 23.9061 19.3318L19.9409 23.297L15.9757 19.3318C14.9259 18.2794 14.3364 16.8535 14.3364 15.367C14.3364 13.8806 14.9259 12.4547 15.9757 11.4023L15.9757 11.4014ZM5.38077 11.3804C6.20527 10.5581 7.26499 10.0124 8.41329 9.81874C9.56159 9.62512 10.7417 9.79324 11.7902 10.2998C11.8656 10.3362 11.9402 10.3742 12.014 10.4141C11.0831 11.8981 10.591 13.6152 10.5948 15.367C10.5952 15.8094 10.6263 16.2512 10.6883 16.6892C10.9695 18.6925 11.898 20.549 13.3322 21.9757L17.0491 25.6925L17.0701 25.7135C16.0236 26.2119 14.8484 26.3743 13.7058 26.1784C12.5633 25.9825 11.5095 25.4378 10.6888 24.6192C10.685 24.6155 10.6815 24.6114 10.6778 24.6077C10.6742 24.6039 10.6711 24.6014 10.6678 24.5981L5.40552 19.3358L5.38039 19.3107C4.32884 18.259 3.73804 16.8327 3.73804 15.3455C3.73804 13.8583 4.32884 12.432 5.38039 11.3803L5.38077 11.3804Z" fill="white"/>
<path d="M71.9082 9.248L67.2282 26H63.2682L60.1242 14.072L56.8362 26L52.9002 26.024L48.3882 9.248H51.9882L54.9402 22.256L58.3482 9.248H62.0922L65.3082 22.184L68.2842 9.248H71.9082ZM73.2382 19.304C73.2382 17.96 73.5022 16.768 74.0302 15.728C74.5742 14.688 75.3022 13.888 76.2142 13.328C77.1422 12.768 78.1742 12.488 79.3102 12.488C80.3022 12.488 81.1662 12.688 81.9022 13.088C82.6542 13.488 83.2542 13.992 83.7022 14.6V12.704H87.0862V26H83.7022V24.056C83.2702 24.68 82.6702 25.2 81.9022 25.616C81.1502 26.016 80.2782 26.216 79.2862 26.216C78.1662 26.216 77.1422 25.928 76.2142 25.352C75.3022 24.776 74.5742 23.968 74.0302 22.928C73.5022 21.872 73.2382 20.664 73.2382 19.304ZM83.7022 19.352C83.7022 18.536 83.5422 17.84 83.2222 17.264C82.9022 16.672 82.4702 16.224 81.9262 15.92C81.3822 15.6 80.7982 15.44 80.1742 15.44C79.5502 15.44 78.9742 15.592 78.4462 15.896C77.9182 16.2 77.4862 16.648 77.1502 17.24C76.8302 17.816 76.6702 18.504 76.6702 19.304C76.6702 20.104 76.8302 20.808 77.1502 21.416C77.4862 22.008 77.9182 22.464 78.4462 22.784C78.9902 23.104 79.5662 23.264 80.1742 23.264C80.7982 23.264 81.3822 23.112 81.9262 22.808C82.4702 22.488 82.9022 22.04 83.2222 21.464C83.5422 20.872 83.7022 20.168 83.7022 19.352ZM98.2398 26L93.7278 20.336V26H90.3678V8.24H93.7278V18.344L98.1918 12.704H102.56L96.7038 19.376L102.608 26H98.2398ZM103.519 19.304C103.519 17.96 103.783 16.768 104.311 15.728C104.855 14.688 105.583 13.888 106.495 13.328C107.423 12.768 108.455 12.488 109.591 12.488C110.583 12.488 111.447 12.688 112.183 13.088C112.935 13.488 113.535 13.992 113.983 14.6V12.704H117.367V26H113.983V24.056C113.551 24.68 112.951 25.2 112.183 25.616C111.431 26.016 110.559 26.216 109.567 26.216C108.447 26.216 107.423 25.928 106.495 25.352C105.583 24.776 104.855 23.968 104.311 22.928C103.783 21.872 103.519 20.664 103.519 19.304ZM113.983 19.352C113.983 18.536 113.823 17.84 113.503 17.264C113.183 16.672 112.751 16.224 112.207 15.92C111.663 15.6 111.079 15.44 110.455 15.44C109.831 15.44 109.255 15.592 108.727 15.896C108.199 16.2 107.767 16.648 107.431 17.24C107.111 17.816 106.951 18.504 106.951 19.304C106.951 20.104 107.111 20.808 107.431 21.416C107.767 22.008 108.199 22.464 108.727 22.784C109.271 23.104 109.847 23.264 110.455 23.264C111.079 23.264 111.663 23.112 112.207 22.808C112.751 22.488 113.183 22.04 113.503 21.464C113.823 20.872 113.983 20.168 113.983 19.352ZM128.017 12.512C129.601 12.512 130.881 13.016 131.857 14.024C132.833 15.016 133.321 16.408 133.321 18.2V26H129.961V18.656C129.961 17.6 129.697 16.792 129.169 16.232C128.641 15.656 127.921 15.368 127.009 15.368C126.081 15.368 125.345 15.656 124.801 16.232C124.273 16.792 124.009 17.6 124.009 18.656V26H120.649V12.704H124.009V14.36C124.457 13.784 125.025 13.336 125.713 13.016C126.417 12.68 127.185 12.512 128.017 12.512ZM135.652 19.304C135.652 17.96 135.916 16.768 136.444 15.728C136.988 14.688 137.724 13.888 138.652 13.328C139.58 12.768 140.612 12.488 141.748 12.488C142.612 12.488 143.436 12.68 144.22 13.064C145.004 13.432 145.628 13.928 146.092 14.552V8.24H149.5V26H146.092V24.032C145.676 24.688 145.092 25.216 144.34 25.616C143.588 26.016 142.716 26.216 141.724 26.216C140.604 26.216 139.58 25.928 138.652 25.352C137.724 24.776 136.988 23.968 136.444 22.928C135.916 21.872 135.652 20.664 135.652 19.304ZM146.116 19.352C146.116 18.536 145.956 17.84 145.636 17.264C145.316 16.672 144.884 16.224 144.34 15.92C143.796 15.6 143.212 15.44 142.588 15.44C141.964 15.44 141.388 15.592 140.86 15.896C140.332 16.2 139.9 16.648 139.564 17.24C139.244 17.816 139.084 18.504 139.084 19.304C139.084 20.104 139.244 20.808 139.564 21.416C139.9 22.008 140.332 22.464 140.86 22.784C141.404 23.104 141.98 23.264 142.588 23.264C143.212 23.264 143.796 23.112 144.34 22.808C144.884 22.488 145.316 22.04 145.636 21.464C145.956 20.872 146.116 20.168 146.116 19.352ZM151.918 19.304C151.918 17.96 152.182 16.768 152.71 15.728C153.254 14.688 153.982 13.888 154.894 13.328C155.822 12.768 156.854 12.488 157.99 12.488C158.982 12.488 159.846 12.688 160.582 13.088C161.334 13.488 161.934 13.992 162.382 14.6V12.704H165.766V26H162.382V24.056C161.95 24.68 161.35 25.2 160.582 25.616C159.83 26.016 158.958 26.216 157.966 26.216C156.846 26.216 155.822 25.928 154.894 25.352C153.982 24.776 153.254 23.968 152.71 22.928C152.182 21.872 151.918 20.664 151.918 19.304ZM162.382 19.352C162.382 18.536 162.222 17.84 161.902 17.264C161.582 16.672 161.15 16.224 160.606 15.92C160.062 15.6 159.478 15.44 158.854 15.44C158.23 15.44 157.654 15.592 157.126 15.896C156.598 16.2 156.166 16.648 155.83 17.24C155.51 17.816 155.35 18.504 155.35 19.304C155.35 20.104 155.51 20.808 155.83 21.416C156.166 22.008 156.598 22.464 157.126 22.784C157.67 23.104 158.246 23.264 158.854 23.264C159.478 23.264 160.062 23.112 160.606 22.808C161.15 22.488 161.582 22.04 161.902 21.464C162.222 20.872 162.382 20.168 162.382 19.352Z" fill="#F7F8F8"/>
</g>
<defs>
<clipPath id="clip0_32_813">
<rect width="167.86" height="36" fill="white"/>
</clipPath>
</defs>
</svg>
